REM GENRE Soundtrack
REM DATE 2009
REM DISCID 2A043A04
REM COMMENT "ExactAudioCopy v0.99pb5"
CATALOG 4988064294848
PERFORMER "performer"
TITLE " xxyyzz #3 ÅutitleÅvÅ^performer"
FILE "performer - title.wav" WAVE
  TRACK 01 AUDIO
    TITLE "titleÅ`"
    PERFORMER "performer"
    ISRC JPB600968301
    INDEX 01 00:00:00
  TRACK 02 AUDIO
    TITLE "title acoustic edit."
    PERFORMER "performer"
    ISRC JPB600968302
    INDEX 00 04:25:27
    INDEX 01 04:27:26
  TRACK 03 AUDIO
    TITLE "title instrumental"
    PERFORMER "performer"
    ISRC JPB600968303
    INDEX 00 09:00:35
    INDEX 01 09:02:34
  TRACK 04 AUDIO
    TITLE "title acoustic edit. instrumental"
    PERFORMER "performer"
    ISRC JPB600968304
    INDEX 00 13:27:61
    INDEX 01 13:29:60
